<svg xmlns="http://www.w3.org/2000/svg" width="1000" height="400" viewBox="0 0 1000 400" role="img" aria-labelledby="title desc">
  <title id="title">DPWM1 clamped reference waveforms</title>
  <desc id="desc">DPWM1 clamped reference waveforms overlaid on min-max (unclamped) references at modulation index ma = 1.0, showing which phase is clamped in each 60-degree sector.</desc>
  <style>
    .bg { fill: #fbf8f2; }
    .axis { stroke: #182126; stroke-width: 1.5; fill: none; }
    .bound { stroke: #d8d5cd; stroke-width: 1.5; fill: none; }
    .zero { stroke: #d8d5cd; stroke-width: 1; fill: none; }
    .sector { stroke: #b8b5ad; stroke-width: 1.5; fill: none; stroke-dasharray: 6 4; }
    .txt { font-family: Arial, Helvetica, sans-serif; fill: #182126; }
    .head { font-size: 24px; font-weight: 700; }
    .label { font-size: 14px; font-weight: 600; }
    .small { font-size: 13px; fill: #5b6468; }
    .sector-num { font-size: 14px; fill: #5b6468; font-weight: 600; }
    .clamp-label { font-size: 11px; font-weight: 600; }
    .legend { font-size: 13px; fill: #5b6468; }
    .legend-bold { font-size: 13px; fill: #182126; font-weight: 600; }
  </style>

  <!-- Background -->
  <rect class="bg" x="0" y="0" width="1000" height="400" rx="24" ry="24" />

  <!-- Heading -->
  <text class="txt head" x="500" y="36" text-anchor="middle">DPWM1 clamped reference (m&#x2090; = 1.0)</text>

  <!-- Y-axis -->
  <line class="axis" x1="120" y1="60" x2="120" y2="340" />

  <!-- Boundary lines -->
  <line class="bound" x1="120" y1="70" x2="920" y2="70" />
  <line class="bound" x1="120" y1="330" x2="920" y2="330" />
  <line class="zero" x1="120" y1="200" x2="920" y2="200" />

  <!-- Y labels -->
  <text class="small" x="108" y="74" text-anchor="end">+1</text>
  <text class="small" x="108" y="204" text-anchor="end">0</text>
  <text class="small" x="108" y="334" text-anchor="end">&#x2212;1</text>

  <!-- Sector boundary lines -->
  <line class="sector" x1="120" y1="60" x2="120" y2="340" />
  <line class="sector" x1="253" y1="60" x2="253" y2="340" />
  <line class="sector" x1="387" y1="60" x2="387" y2="340" />
  <line class="sector" x1="520" y1="60" x2="520" y2="340" />
  <line class="sector" x1="653" y1="60" x2="653" y2="340" />
  <line class="sector" x1="787" y1="60" x2="787" y2="340" />
  <line class="sector" x1="920" y1="60" x2="920" y2="340" />

  <!-- Sector number labels -->
  <text class="sector-num" x="187" y="355" text-anchor="middle">1</text>
  <text class="sector-num" x="320" y="355" text-anchor="middle">2</text>
  <text class="sector-num" x="453" y="355" text-anchor="middle">3</text>
  <text class="sector-num" x="587" y="355" text-anchor="middle">4</text>
  <text class="sector-num" x="720" y="355" text-anchor="middle">5</text>
  <text class="sector-num" x="853" y="355" text-anchor="middle">6</text>

  <!-- Clamped phase labels -->
  <text class="clamp-label" x="187" y="370" text-anchor="middle" fill="#7b6ea0">W clamp &#x2212;1</text>
  <text class="clamp-label" x="320" y="370" text-anchor="middle" fill="#c14f2c">U clamp +1</text>
  <text class="clamp-label" x="453" y="370" text-anchor="middle" fill="#4e7a76">V clamp &#x2212;1</text>
  <text class="clamp-label" x="587" y="370" text-anchor="middle" fill="#7b6ea0">W clamp +1</text>
  <text class="clamp-label" x="720" y="370" text-anchor="middle" fill="#c14f2c">U clamp &#x2212;1</text>
  <text class="clamp-label" x="853" y="370" text-anchor="middle" fill="#4e7a76">V clamp +1</text>

  <!-- Unclamped min-max references (thin, semi-transparent) -->
  <polyline points="120.0,200.0 122.7,195.9 125.4,191.8 128.0,187.7 130.7,183.6 133.4,179.5 136.1,175.5 138.7,171.4 141.4,167.4 144.1,163.3 146.8,159.3 149.4,155.3 152.1,151.3 154.8,147.4 157.5,143.5 160.1,139.5 162.8,135.7 165.5,131.8 168.2,128.0 170.8,124.2 173.5,120.4 176.2,116.7 178.9,113.0 181.5,109.4 184.2,105.8 186.9,102.4 189.6,101.2 192.2,100.1 194.9,99.1 197.6,98.0 200.3,97.1 202.9,96.1 205.6,95.2 208.3,94.4 211.0,93.6 213.6,92.8 216.3,92.1 219.0,91.5 221.7,90.9 224.3,90.3 227.0,89.8 229.7,89.4 232.4,88.9 235.1,88.6 237.7,88.3 240.4,88.0 243.1,87.8 245.8,87.6 248.4,87.5 251.1,87.4 253.8,87.4 256.5,87.5 259.1,87.5 261.8,87.7 264.5,87.8 267.2,88.1 269.8,88.4 272.5,88.7 275.2,89.1 277.9,89.5 280.5,90.0 283.2,90.5 285.9,91.1 288.6,91.7 291.2,92.4 293.9,93.1 296.6,93.9 299.3,94.7 301.9,95.5 304.6,96.4 307.3,97.4 310.0,98.4 312.6,99.4 315.3,100.5 318.0,101.6 320.7,102.2 323.3,101.1 326.0,99.9 328.7,98.9 331.4,97.9 334.0,96.9 336.7,96.0 339.4,95.1 342.1,94.3 344.7,93.5 347.4,92.7 350.1,92.0 352.8,91.4 355.5,90.8 358.1,90.2 360.8,89.7 363.5,89.3 366.2,88.9 368.8,88.5 371.5,88.2 374.2,88.0 376.9,87.8 379.5,87.6 382.2,87.5 384.9,87.4 387.6,87.4 390.2,87.5 392.9,87.6 395.6,87.7 398.3,87.9 400.9,88.1 403.6,88.4 406.3,88.8 409.0,89.1 411.6,89.6 414.3,90.1 417.0,90.6 419.7,91.2 422.3,91.8 425.0,92.5 427.7,93.2 430.4,94.0 433.0,94.8 435.7,95.7 438.4,96.6 441.1,97.5 443.7,98.5 446.4,99.6 449.1,100.7 451.8,101.8 454.4,104.0 457.1,107.6 459.8,111.2 462.5,114.9 465.2,118.6 467.8,122.3 470.5,126.1 473.2,129.9 475.9,133.7 478.5,137.6 481.2,141.5 483.9,145.4 486.6,149.4 489.2,153.3 491.9,157.3 494.6,161.3 497.3,165.4 499.9,169.4 502.6,173.4 505.3,177.5 508.0,181.6 510.6,185.7 513.3,189.8 516.0,193.9 518.7,198.0 521.3,202.0 524.0,206.1 526.7,210.2 529.4,214.3 532.0,218.4 534.7,222.5 537.4,226.6 540.1,230.6 542.7,234.6 545.4,238.7 548.1,242.7 550.8,246.7 553.4,250.6 556.1,254.6 558.8,258.5 561.5,262.4 564.1,266.3 566.8,270.1 569.5,273.9 572.2,277.7 574.8,281.4 577.5,285.1 580.2,288.8 582.9,292.4 585.6,296.0 588.2,298.2 590.9,299.3 593.6,300.4 596.3,301.5 598.9,302.5 601.6,303.4 604.3,304.3 607.0,305.2 609.6,306.0 612.3,306.8 615.0,307.5 617.7,308.2 620.3,308.8 623.0,309.4 625.7,309.9 628.4,310.4 631.0,310.9 633.7,311.2 636.4,311.6 639.1,311.9 641.7,312.1 644.4,312.3 647.1,312.4 649.8,312.5 652.4,312.6 655.1,312.6 657.8,312.5 660.5,312.4 663.1,312.2 665.8,312.0 668.5,311.8 671.2,311.5 673.8,311.1 676.5,310.7 679.2,310.3 681.9,309.8 684.5,309.2 687.2,308.6 689.9,308.0 692.6,307.3 695.3,306.5 697.9,305.7 700.6,304.9 703.3,304.0 706.0,303.1 708.6,302.1 711.3,301.1 714.0,300.1 716.7,298.9 719.3,297.8 722.0,298.4 724.7,299.5 727.4,300.6 730.0,301.6 732.7,302.6 735.4,303.6 738.1,304.5 740.7,305.3 743.4,306.1 746.1,306.9 748.8,307.6 751.4,308.3 754.1,308.9 756.8,309.5 759.5,310.0 762.1,310.5 764.8,310.9 767.5,311.3 770.2,311.6 772.8,311.9 775.5,312.2 778.2,312.3 780.9,312.5 783.5,312.5 786.2,312.6 788.9,312.6 791.6,312.5 794.2,312.4 796.9,312.2 799.6,312.0 802.3,311.7 804.9,311.4 807.6,311.1 810.3,310.6 813.0,310.2 815.7,309.7 818.3,309.1 821.0,308.5 823.7,307.9 826.4,307.2 829.0,306.4 831.7,305.6 834.4,304.8 837.1,303.9 839.7,302.9 842.4,302.0 845.1,300.9 847.8,299.9 850.4,298.8 853.1,297.6 855.8,294.2 858.5,290.6 861.1,287.0 863.8,283.3 866.5,279.6 869.2,275.8 871.8,272.0 874.5,268.2 877.2,264.3 879.9,260.5 882.5,256.5 885.2,252.6 887.9,248.7 890.6,244.7 893.2,240.7 895.9,236.7 898.6,232.6 901.3,228.6 903.9,224.5 906.6,220.5 909.3,216.4 912.0,212.3 914.6,208.2 917.3,204.1 920.0,200.0" stroke="#c14f2c" stroke-width="1.5" fill="none" opacity="0.4" />
  <polyline points="120.0,312.6 122.7,312.6 125.4,312.5 128.0,312.4 130.7,312.2 133.4,312.0 136.1,311.7 138.7,311.4 141.4,311.0 144.1,310.6 146.8,310.1 149.4,309.6 152.1,309.0 154.8,308.4 157.5,307.7 160.1,307.0 162.8,306.3 165.5,305.5 168.2,304.6 170.8,303.7 173.5,302.8 176.2,301.8 178.9,300.8 181.5,299.7 184.2,298.6 186.9,297.6 189.6,298.8 192.2,299.9 194.9,300.9 197.6,302.0 200.3,302.9 202.9,303.9 205.6,304.8 208.3,305.6 211.0,306.4 213.6,307.2 216.3,307.9 219.0,308.5 221.7,309.1 224.3,309.7 227.0,310.2 229.7,310.6 232.4,311.1 235.1,311.4 237.7,311.7 240.4,312.0 243.1,312.2 245.8,312.4 248.4,312.5 251.1,312.6 253.8,312.6 256.5,312.5 259.1,312.5 261.8,312.3 264.5,312.2 267.2,311.9 269.8,311.6 272.5,311.3 275.2,310.9 277.9,310.5 280.5,310.0 283.2,309.5 285.9,308.9 288.6,308.3 291.2,307.6 293.9,306.9 296.6,306.1 299.3,305.3 301.9,304.5 304.6,303.6 307.3,302.6 310.0,301.6 312.6,300.6 315.3,299.5 318.0,298.4 320.7,296.6 323.3,293.0 326.0,289.4 328.7,285.7 331.4,282.0 334.0,278.3 336.7,274.5 339.4,270.7 342.1,266.9 344.7,263.0 347.4,259.2 350.1,255.2 352.8,251.3 355.5,247.3 358.1,243.3 360.8,239.3 363.5,235.3 366.2,231.3 368.8,227.2 371.5,223.2 374.2,219.1 376.9,215.0 379.5,210.9 382.2,206.8 384.9,202.7 387.6,198.6 390.2,194.5 392.9,190.4 395.6,186.4 398.3,182.3 400.9,178.2 403.6,174.1 406.3,170.1 409.0,166.0 411.6,162.0 414.3,158.0 417.0,154.0 419.7,150.0 422.3,146.1 425.0,142.1 427.7,138.2 430.4,134.4 433.0,130.5 435.7,126.7 438.4,122.9 441.1,119.2 443.7,115.5 446.4,111.8 449.1,108.2 451.8,104.6 454.4,102.0 457.1,100.9 459.8,99.8 462.5,98.7 465.2,97.7 467.8,96.7 470.5,95.8 473.2,94.9 475.9,94.1 478.5,93.3 481.2,92.6 483.9,91.9 486.6,91.3 489.2,90.7 491.9,90.1 494.6,89.7 497.3,89.2 499.9,88.8 502.6,88.5 505.3,88.2 508.0,87.9 510.6,87.7 513.3,87.6 516.0,87.5 518.7,87.4 521.3,87.4 524.0,87.5 526.7,87.6 529.4,87.7 532.0,87.9 534.7,88.2 537.4,88.5 540.1,88.8 542.7,89.2 545.4,89.7 548.1,90.1 550.8,90.7 553.4,91.3 556.1,91.9 558.8,92.6 561.5,93.3 564.1,94.1 566.8,94.9 569.5,95.8 572.2,96.7 574.8,97.7 577.5,98.7 580.2,99.8 582.9,100.9 585.6,102.0 588.2,101.8 590.9,100.7 593.6,99.6 596.3,98.5 598.9,97.5 601.6,96.6 604.3,95.7 607.0,94.8 609.6,94.0 612.3,93.2 615.0,92.5 617.7,91.8 620.3,91.2 623.0,90.6 625.7,90.1 628.4,89.6 631.0,89.1 633.7,88.8 636.4,88.4 639.1,88.1 641.7,87.9 644.4,87.7 647.1,87.6 649.8,87.5 652.4,87.4 655.1,87.4 657.8,87.5 660.5,87.6 663.1,87.8 665.8,88.0 668.5,88.2 671.2,88.5 673.8,88.9 676.5,89.3 679.2,89.7 681.9,90.2 684.5,90.8 687.2,91.4 689.9,92.0 692.6,92.7 695.3,93.5 697.9,94.3 700.6,95.1 703.3,96.0 706.0,96.9 708.6,97.9 711.3,98.9 714.0,99.9 716.7,101.1 719.3,102.2 722.0,105.2 724.7,108.8 727.4,112.4 730.0,116.1 732.7,119.8 735.4,123.6 738.1,127.4 740.7,131.2 743.4,135.0 746.1,138.9 748.8,142.8 751.4,146.7 754.1,150.7 756.8,154.7 759.5,158.7 762.1,162.7 764.8,166.7 767.5,170.7 770.2,174.8 772.8,178.9 775.5,182.9 778.2,187.0 780.9,191.1 783.5,195.2 786.2,199.3 788.9,203.4 791.6,207.5 794.2,211.6 796.9,215.7 799.6,219.8 802.3,223.8 804.9,227.9 807.6,232.0 810.3,236.0 813.0,240.0 815.7,244.0 818.3,248.0 821.0,252.0 823.7,255.9 826.4,259.8 829.0,263.7 831.7,267.5 834.4,271.4 837.1,275.2 839.7,278.9 842.4,282.7 845.1,286.4 847.8,290.0 850.4,293.6 853.1,297.2 855.8,298.6 858.5,299.7 861.1,300.8 863.8,301.8 866.5,302.8 869.2,303.7 871.8,304.6 874.5,305.5 877.2,306.3 879.9,307.0 882.5,307.7 885.2,308.4 887.9,309.0 890.6,309.6 893.2,310.1 895.9,310.6 898.6,311.0 901.3,311.4 903.9,311.7 906.6,312.0 909.3,312.2 912.0,312.4 914.6,312.5 917.3,312.6 920.0,312.6" stroke="#4e7a76" stroke-width="1.5" fill="none" opacity="0.4" />
  <polyline points="120.0,87.4 122.7,87.4 125.4,87.5 128.0,87.6 130.7,87.8 133.4,88.0 136.1,88.3 138.7,88.6 141.4,89.0 144.1,89.4 146.8,89.9 149.4,90.4 152.1,91.0 154.8,91.6 157.5,92.3 160.1,93.0 162.8,93.7 165.5,94.5 168.2,95.4 170.8,96.3 173.5,97.2 176.2,98.2 178.9,99.2 181.5,100.3 184.2,101.4 186.9,102.8 189.6,106.4 192.2,110.0 194.9,113.6 197.6,117.3 200.3,121.1 202.9,124.8 205.6,128.6 208.3,132.5 211.0,136.3 213.6,140.2 216.3,144.1 219.0,148.0 221.7,152.0 224.3,156.0 227.0,160.0 229.7,164.0 232.4,168.0 235.1,172.1 237.7,176.2 240.4,180.2 243.1,184.3 245.8,188.4 248.4,192.5 251.1,196.6 253.8,200.7 256.5,204.8 259.1,208.9 261.8,213.0 264.5,217.1 267.2,221.1 269.8,225.2 272.5,229.3 275.2,233.3 277.9,237.3 280.5,241.3 283.2,245.3 285.9,249.3 288.6,253.3 291.2,257.2 293.9,261.1 296.6,265.0 299.3,268.8 301.9,272.6 304.6,276.4 307.3,280.2 310.0,283.9 312.6,287.6 315.3,291.2 318.0,294.8 320.7,297.8 323.3,298.9 326.0,300.1 328.7,301.1 331.4,302.1 334.0,303.1 336.7,304.0 339.4,304.9 342.1,305.7 344.7,306.5 347.4,307.3 350.1,308.0 352.8,308.6 355.5,309.2 358.1,309.8 360.8,310.3 363.5,310.7 366.2,311.1 368.8,311.5 371.5,311.8 374.2,312.0 376.9,312.2 379.5,312.4 382.2,312.5 384.9,312.6 387.6,312.6 390.2,312.5 392.9,312.4 395.6,312.3 398.3,312.1 400.9,311.9 403.6,311.6 406.3,311.2 409.0,310.9 411.6,310.4 414.3,309.9 417.0,309.4 419.7,308.8 422.3,308.2 425.0,307.5 427.7,306.8 430.4,306.0 433.0,305.2 435.7,304.3 438.4,303.4 441.1,302.5 443.7,301.5 446.4,300.4 449.1,299.3 451.8,298.2 454.4,298.0 457.1,299.1 459.8,300.2 462.5,301.3 465.2,302.3 467.8,303.3 470.5,304.2 473.2,305.1 475.9,305.9 478.5,306.7 481.2,307.4 483.9,308.1 486.6,308.7 489.2,309.3 491.9,309.9 494.6,310.3 497.3,310.8 499.9,311.2 502.6,311.5 505.3,311.8 508.0,312.1 510.6,312.3 513.3,312.4 516.0,312.5 518.7,312.6 521.3,312.6 524.0,312.5 526.7,312.4 529.4,312.3 532.0,312.1 534.7,311.8 537.4,311.5 540.1,311.2 542.7,310.8 545.4,310.3 548.1,309.9 550.8,309.3 553.4,308.7 556.1,308.1 558.8,307.4 561.5,306.7 564.1,305.9 566.8,305.1 569.5,304.2 572.2,303.3 574.8,302.3 577.5,301.3 580.2,300.2 582.9,299.1 585.6,298.0 588.2,295.4 590.9,291.8 593.6,288.2 596.3,284.5 598.9,280.8 601.6,277.1 604.3,273.3 607.0,269.5 609.6,265.6 612.3,261.8 615.0,257.9 617.7,253.9 620.3,250.0 623.0,246.0 625.7,242.0 628.4,238.0 631.0,234.0 633.7,229.9 636.4,225.9 639.1,221.8 641.7,217.7 644.4,213.6 647.1,209.6 649.8,205.5 652.4,201.4 655.1,197.3 657.8,193.2 660.5,189.1 663.1,185.0 665.8,180.9 668.5,176.8 671.2,172.8 673.8,168.7 676.5,164.7 679.2,160.7 681.9,156.7 684.5,152.7 687.2,148.7 689.9,144.8 692.6,140.8 695.3,137.0 697.9,133.1 700.6,129.3 703.3,125.5 706.0,121.7 708.6,118.0 711.3,114.3 714.0,110.6 716.7,107.0 719.3,103.4 722.0,101.6 724.7,100.5 727.4,99.4 730.0,98.4 732.7,97.4 735.4,96.4 738.1,95.5 740.7,94.7 743.4,93.9 746.1,93.1 748.8,92.4 751.4,91.7 754.1,91.1 756.8,90.5 759.5,90.0 762.1,89.5 764.8,89.1 767.5,88.7 770.2,88.4 772.8,88.1 775.5,87.8 778.2,87.7 780.9,87.5 783.5,87.5 786.2,87.4 788.9,87.4 791.6,87.5 794.2,87.6 796.9,87.8 799.6,88.0 802.3,88.3 804.9,88.6 807.6,88.9 810.3,89.4 813.0,89.8 815.7,90.3 818.3,90.9 821.0,91.5 823.7,92.1 826.4,92.8 829.0,93.6 831.7,94.4 834.4,95.2 837.1,96.1 839.7,97.1 842.4,98.0 845.1,99.1 847.8,100.1 850.4,101.2 853.1,102.4 855.8,101.4 858.5,100.3 861.1,99.2 863.8,98.2 866.5,97.2 869.2,96.3 871.8,95.4 874.5,94.5 877.2,93.7 879.9,93.0 882.5,92.3 885.2,91.6 887.9,91.0 890.6,90.4 893.2,89.9 895.9,89.4 898.6,89.0 901.3,88.6 903.9,88.3 906.6,88.0 909.3,87.8 912.0,87.6 914.6,87.5 917.3,87.4 920.0,87.4" stroke="#7b6ea0" stroke-width="1.5" fill="none" opacity="0.4" />

  <!-- DPWM1 clamped references (bold) -->
  <polyline points="120.0,217.4 122.7,213.3 125.4,209.3 128.0,205.4 130.7,201.4 133.4,197.6 136.1,193.8 138.7,190.1 141.4,186.4 144.1,182.8 146.8,179.2 149.4,175.7 152.1,172.3 154.8,169.0 157.5,165.7 160.1,162.5 162.8,159.4 165.5,156.3 168.2,153.4 170.8,150.5 173.5,147.7 176.2,144.9 178.9,142.3 181.5,139.7 184.2,137.2 186.9,134.8 189.6,132.5 192.2,130.3 194.9,128.1 197.6,126.1 200.3,124.1 202.9,122.2 205.6,120.5 208.3,118.8 211.0,117.2 213.6,115.7 216.3,114.3 219.0,113.0 221.7,111.8 224.3,110.6 227.0,109.6 229.7,108.7 232.4,107.9 235.1,107.2 237.7,106.5 240.4,106.0 243.1,105.6 245.8,105.2 248.4,105.0 251.1,104.9 253.8,70.0 256.5,70.0 259.1,70.0 261.8,70.0 264.5,70.0 267.2,70.0 269.8,70.0 272.5,70.0 275.2,70.0 277.9,70.0 280.5,70.0 283.2,70.0 285.9,70.0 288.6,70.0 291.2,70.0 293.9,70.0 296.6,70.0 299.3,70.0 301.9,70.0 304.6,70.0 307.3,70.0 310.0,70.0 312.6,70.0 315.3,70.0 318.0,70.0 320.7,70.0 323.3,70.0 326.0,70.0 328.7,70.0 331.4,70.0 334.0,70.0 336.7,70.0 339.4,70.0 342.1,70.0 344.7,70.0 347.4,70.0 350.1,70.0 352.8,70.0 355.5,70.0 358.1,70.0 360.8,70.0 363.5,70.0 366.2,70.0 368.8,70.0 371.5,70.0 374.2,70.0 376.9,70.0 379.5,70.0 382.2,70.0 384.9,70.0 387.6,104.8 390.2,104.9 392.9,105.1 395.6,105.4 398.3,105.8 400.9,106.2 403.6,106.8 406.3,107.5 409.0,108.3 411.6,109.2 414.3,110.1 417.0,111.2 419.7,112.4 422.3,113.6 425.0,115.0 427.7,116.4 430.4,118.0 433.0,119.6 435.7,121.3 438.4,123.2 441.1,125.1 443.7,127.1 446.4,129.2 449.1,131.4 451.8,133.6 454.4,136.0 457.1,138.4 459.8,141.0 462.5,143.6 465.2,146.3 467.8,149.0 470.5,151.9 473.2,154.8 475.9,157.9 478.5,160.9 481.2,164.1 483.9,167.3 486.6,170.6 489.2,174.0 491.9,177.5 494.6,181.0 497.3,184.6 499.9,188.2 502.6,191.9 505.3,195.7 508.0,199.5 510.6,203.4 513.3,207.3 516.0,211.3 518.7,215.4 521.3,184.6 524.0,188.7 526.7,192.7 529.4,196.6 532.0,200.5 534.7,204.3 537.4,208.1 540.1,211.8 542.7,215.4 545.4,219.0 548.1,222.5 550.8,226.0 553.4,229.4 556.1,232.7 558.8,235.9 561.5,239.1 564.1,242.1 566.8,245.2 569.5,248.1 572.2,251.0 574.8,253.7 577.5,256.4 580.2,259.0 582.9,261.6 585.6,264.0 588.2,266.4 590.9,268.6 593.6,270.8 596.3,272.9 598.9,274.9 601.6,276.8 604.3,278.7 607.0,280.4 609.6,282.0 612.3,283.6 615.0,285.0 617.7,286.4 620.3,287.6 623.0,288.8 625.7,289.9 628.4,290.8 631.0,291.7 633.7,292.5 636.4,293.2 639.1,293.8 641.7,294.2 644.4,294.6 647.1,294.9 649.8,295.1 652.4,295.2 655.1,330.0 657.8,330.0 660.5,330.0 663.1,330.0 665.8,330.0 668.5,330.0 671.2,330.0 673.8,330.0 676.5,330.0 679.2,330.0 681.9,330.0 684.5,330.0 687.2,330.0 689.9,330.0 692.6,330.0 695.3,330.0 697.9,330.0 700.6,330.0 703.3,330.0 706.0,330.0 708.6,330.0 711.3,330.0 714.0,330.0 716.7,330.0 719.3,330.0 722.0,330.0 724.7,330.0 727.4,330.0 730.0,330.0 732.7,330.0 735.4,330.0 738.1,330.0 740.7,330.0 743.4,330.0 746.1,330.0 748.8,330.0 751.4,330.0 754.1,330.0 756.8,330.0 759.5,330.0 762.1,330.0 764.8,330.0 767.5,330.0 770.2,330.0 772.8,330.0 775.5,330.0 778.2,330.0 780.9,330.0 783.5,330.0 786.2,330.0 788.9,295.1 791.6,295.0 794.2,294.8 796.9,294.4 799.6,294.0 802.3,293.5 804.9,292.8 807.6,292.1 810.3,291.3 813.0,290.4 815.7,289.4 818.3,288.2 821.0,287.0 823.7,285.7 826.4,284.3 829.0,282.8 831.7,281.2 834.4,279.5 837.1,277.8 839.7,275.9 842.4,273.9 845.1,271.9 847.8,269.7 850.4,267.5 853.1,265.2 855.8,262.8 858.5,260.3 861.1,257.7 863.8,255.1 866.5,252.3 869.2,249.5 871.8,246.6 874.5,243.7 877.2,240.6 879.9,237.5 882.5,234.3 885.2,231.0 887.9,227.7 890.6,224.3 893.2,220.8 895.9,217.2 898.6,213.6 901.3,209.9 903.9,206.2 906.6,202.4 909.3,198.6 912.0,194.6 914.6,190.7 917.3,186.7 920.0,182.6" stroke="#c14f2c" stroke-width="3" fill="none" />
  <polyline points="120.0,330.0 122.7,330.0 125.4,330.0 128.0,330.0 130.7,330.0 133.4,330.0 136.1,330.0 138.7,330.0 141.4,330.0 144.1,330.0 146.8,330.0 149.4,330.0 152.1,330.0 154.8,330.0 157.5,330.0 160.1,330.0 162.8,330.0 165.5,330.0 168.2,330.0 170.8,330.0 173.5,330.0 176.2,330.0 178.9,330.0 181.5,330.0 184.2,330.0 186.9,330.0 189.6,330.0 192.2,330.0 194.9,330.0 197.6,330.0 200.3,330.0 202.9,330.0 205.6,330.0 208.3,330.0 211.0,330.0 213.6,330.0 216.3,330.0 219.0,330.0 221.7,330.0 224.3,330.0 227.0,330.0 229.7,330.0 232.4,330.0 235.1,330.0 237.7,330.0 240.4,330.0 243.1,330.0 245.8,330.0 248.4,330.0 251.1,330.0 253.8,295.2 256.5,295.1 259.1,294.9 261.8,294.7 264.5,294.3 267.2,293.8 269.8,293.3 272.5,292.6 275.2,291.9 277.9,291.0 280.5,290.0 283.2,289.0 285.9,287.8 288.6,286.6 291.2,285.3 293.9,283.8 296.6,282.3 299.3,280.7 301.9,279.0 304.6,277.1 307.3,275.2 310.0,273.3 312.6,271.2 315.3,269.0 318.0,266.8 320.7,264.4 323.3,262.0 326.0,259.5 328.7,256.9 331.4,254.2 334.0,251.4 336.7,248.6 339.4,245.7 342.1,242.7 344.7,239.6 347.4,236.4 350.1,233.2 352.8,229.9 355.5,226.5 358.1,223.1 360.8,219.6 363.5,216.0 366.2,212.4 368.8,208.7 371.5,205.0 374.2,201.1 376.9,197.3 379.5,193.3 382.2,189.3 384.9,185.3 387.6,216.1 390.2,212.0 392.9,208.0 395.6,204.0 398.3,200.2 400.9,196.3 403.6,192.5 406.3,188.8 409.0,185.2 411.6,181.6 414.3,178.0 417.0,174.6 419.7,171.2 422.3,167.9 425.0,164.6 427.7,161.5 430.4,158.4 433.0,155.3 435.7,152.4 438.4,149.5 441.1,146.7 443.7,144.0 446.4,141.4 449.1,138.9 451.8,136.4 454.4,134.0 457.1,131.7 459.8,129.5 462.5,127.4 465.2,125.4 467.8,123.5 470.5,121.6 473.2,119.9 475.9,118.2 478.5,116.7 481.2,115.2 483.9,113.8 486.6,112.6 489.2,111.4 491.9,110.3 494.6,109.3 497.3,108.4 499.9,107.6 502.6,106.9 505.3,106.3 508.0,105.8 510.6,105.4 513.3,105.1 516.0,104.9 518.7,104.8 521.3,70.0 524.0,70.0 526.7,70.0 529.4,70.0 532.0,70.0 534.7,70.0 537.4,70.0 540.1,70.0 542.7,70.0 545.4,70.0 548.1,70.0 550.8,70.0 553.4,70.0 556.1,70.0 558.8,70.0 561.5,70.0 564.1,70.0 566.8,70.0 569.5,70.0 572.2,70.0 574.8,70.0 577.5,70.0 580.2,70.0 582.9,70.0 585.6,70.0 588.2,70.0 590.9,70.0 593.6,70.0 596.3,70.0 598.9,70.0 601.6,70.0 604.3,70.0 607.0,70.0 609.6,70.0 612.3,70.0 615.0,70.0 617.7,70.0 620.3,70.0 623.0,70.0 625.7,70.0 628.4,70.0 631.0,70.0 633.7,70.0 636.4,70.0 639.1,70.0 641.7,70.0 644.4,70.0 647.1,70.0 649.8,70.0 652.4,70.0 655.1,104.9 657.8,105.0 660.5,105.2 663.1,105.5 665.8,105.9 668.5,106.4 671.2,107.0 673.8,107.7 676.5,108.6 679.2,109.5 681.9,110.5 684.5,111.6 687.2,112.8 689.9,114.1 692.6,115.4 695.3,116.9 697.9,118.5 700.6,120.2 703.3,121.9 706.0,123.8 708.6,125.7 711.3,127.8 714.0,129.9 716.7,132.1 719.3,134.4 722.0,136.8 724.7,139.3 727.4,141.8 730.0,144.5 732.7,147.2 735.4,150.0 738.1,152.9 740.7,155.8 743.4,158.9 746.1,162.0 748.8,165.2 751.4,168.4 754.1,171.8 756.8,175.2 759.5,178.6 762.1,182.2 764.8,185.8 767.5,189.4 770.2,193.2 772.8,196.9 775.5,200.8 778.2,204.7 780.9,208.7 783.5,212.7 786.2,216.7 788.9,186.0 791.6,190.0 794.2,194.0 796.9,197.9 799.6,201.8 802.3,205.6 804.9,209.3 807.6,213.0 810.3,216.6 813.0,220.2 815.7,223.7 818.3,227.1 821.0,230.5 823.7,233.8 826.4,237.0 829.0,240.1 831.7,243.2 834.4,246.1 837.1,249.1 839.7,251.9 842.4,254.6 845.1,257.3 847.8,259.9 850.4,262.4 853.1,264.8 855.8,267.1 858.5,269.4 861.1,271.5 863.8,273.6 866.5,275.6 869.2,277.5 871.8,279.2 874.5,281.0 877.2,282.6 879.9,284.1 882.5,285.5 885.2,286.8 887.9,288.0 890.6,289.2 893.2,290.2 895.9,291.2 898.6,292.0 901.3,292.7 903.9,293.4 906.6,293.9 909.3,294.4 912.0,294.7 914.6,295.0 917.3,295.1 920.0,295.2" stroke="#4e7a76" stroke-width="3" fill="none" />
  <polyline points="120.0,104.8 122.7,104.9 125.4,105.0 128.0,105.3 130.7,105.6 133.4,106.1 136.1,106.6 138.7,107.3 141.4,108.0 144.1,108.8 146.8,109.8 149.4,110.8 152.1,112.0 154.8,113.2 157.5,114.5 160.1,115.9 162.8,117.4 165.5,119.0 168.2,120.8 170.8,122.5 173.5,124.4 176.2,126.4 178.9,128.5 181.5,130.6 184.2,132.9 186.9,135.2 189.6,137.6 192.2,140.1 194.9,142.7 197.6,145.4 200.3,148.1 202.9,150.9 205.6,153.9 208.3,156.8 211.0,159.9 213.6,163.0 216.3,166.2 219.0,169.5 221.7,172.9 224.3,176.3 227.0,179.8 229.7,183.4 232.4,187.0 235.1,190.7 237.7,194.4 240.4,198.2 243.1,202.1 245.8,206.0 248.4,210.0 251.1,214.0 253.8,183.3 256.5,187.3 259.1,191.3 261.8,195.3 264.5,199.2 267.2,203.1 269.8,206.8 272.5,210.6 275.2,214.2 277.9,217.8 280.5,221.4 283.2,224.8 285.9,228.2 288.6,231.6 291.2,234.8 293.9,238.0 296.6,241.1 299.3,244.2 301.9,247.1 304.6,250.0 307.3,252.8 310.0,255.5 312.6,258.2 315.3,260.7 318.0,263.2 320.7,265.6 323.3,267.9 326.0,270.1 328.7,272.2 331.4,274.3 334.0,276.2 336.7,278.1 339.4,279.8 342.1,281.5 344.7,283.1 347.4,284.6 350.1,285.9 352.8,287.2 355.5,288.4 358.1,289.5 360.8,290.5 363.5,291.4 366.2,292.3 368.8,293.0 371.5,293.6 374.2,294.1 376.9,294.5 379.5,294.8 382.2,295.0 384.9,295.1 387.6,330.0 390.2,330.0 392.9,330.0 395.6,330.0 398.3,330.0 400.9,330.0 403.6,330.0 406.3,330.0 409.0,330.0 411.6,330.0 414.3,330.0 417.0,330.0 419.7,330.0 422.3,330.0 425.0,330.0 427.7,330.0 430.4,330.0 433.0,330.0 435.7,330.0 438.4,330.0 441.1,330.0 443.7,330.0 446.4,330.0 449.1,330.0 451.8,330.0 454.4,330.0 457.1,330.0 459.8,330.0 462.5,330.0 465.2,330.0 467.8,330.0 470.5,330.0 473.2,330.0 475.9,330.0 478.5,330.0 481.2,330.0 483.9,330.0 486.6,330.0 489.2,330.0 491.9,330.0 494.6,330.0 497.3,330.0 499.9,330.0 502.6,330.0 505.3,330.0 508.0,330.0 510.6,330.0 513.3,330.0 516.0,330.0 518.7,330.0 521.3,295.2 524.0,295.1 526.7,294.9 529.4,294.6 532.0,294.2 534.7,293.7 537.4,293.1 540.1,292.4 542.7,291.6 545.4,290.7 548.1,289.7 550.8,288.6 553.4,287.4 556.1,286.2 558.8,284.8 561.5,283.3 564.1,281.8 566.8,280.1 569.5,278.4 572.2,276.5 574.8,274.6 577.5,272.6 580.2,270.5 582.9,268.3 585.6,266.0 588.2,263.6 590.9,261.1 593.6,258.6 596.3,256.0 598.9,253.3 601.6,250.5 604.3,247.6 607.0,244.7 609.6,241.6 612.3,238.5 615.0,235.4 617.7,232.1 620.3,228.8 623.0,225.4 625.7,222.0 628.4,218.4 631.0,214.8 633.7,211.2 636.4,207.5 639.1,203.7 641.7,199.8 644.4,196.0 647.1,192.0 649.8,188.0 652.4,183.9 655.1,214.7 657.8,210.7 660.5,206.7 663.1,202.7 665.8,198.9 668.5,195.0 671.2,191.3 673.8,187.6 676.5,184.0 679.2,180.4 681.9,176.9 684.5,173.5 687.2,170.1 689.9,166.8 692.6,163.6 695.3,160.4 697.9,157.3 700.6,154.3 703.3,151.4 706.0,148.6 708.6,145.8 711.3,143.1 714.0,140.5 716.7,138.0 719.3,135.6 722.0,133.2 724.7,131.0 727.4,128.8 730.0,126.7 732.7,124.8 735.4,122.9 738.1,121.0 740.7,119.3 743.4,117.7 746.1,116.2 748.8,114.7 751.4,113.4 754.1,112.2 756.8,111.0 759.5,110.0 762.1,109.0 764.8,108.1 767.5,107.4 770.2,106.7 772.8,106.2 775.5,105.7 778.2,105.3 780.9,105.1 783.5,104.9 786.2,104.8 788.9,70.0 791.6,70.0 794.2,70.0 796.9,70.0 799.6,70.0 802.3,70.0 804.9,70.0 807.6,70.0 810.3,70.0 813.0,70.0 815.7,70.0 818.3,70.0 821.0,70.0 823.7,70.0 826.4,70.0 829.0,70.0 831.7,70.0 834.4,70.0 837.1,70.0 839.7,70.0 842.4,70.0 845.1,70.0 847.8,70.0 850.4,70.0 853.1,70.0 855.8,70.0 858.5,70.0 861.1,70.0 863.8,70.0 866.5,70.0 869.2,70.0 871.8,70.0 874.5,70.0 877.2,70.0 879.9,70.0 882.5,70.0 885.2,70.0 887.9,70.0 890.6,70.0 893.2,70.0 895.9,70.0 898.6,70.0 901.3,70.0 903.9,70.0 906.6,70.0 909.3,70.0 912.0,70.0 914.6,70.0 917.3,70.0 920.0,70.0" stroke="#7b6ea0" stroke-width="3" fill="none" />

  <!-- Legend (top right) -->
  <line x1="750" y1="58" x2="775" y2="58" stroke="#c14f2c" stroke-width="3" />
  <text class="legend-bold" x="780" y="62" fill="#c14f2c">u</text>
  <line x1="800" y1="58" x2="825" y2="58" stroke="#4e7a76" stroke-width="3" />
  <text class="legend-bold" x="830" y="62" fill="#4e7a76">v</text>
  <line x1="850" y1="58" x2="875" y2="58" stroke="#7b6ea0" stroke-width="3" />
  <text class="legend-bold" x="880" y="62" fill="#7b6ea0">w</text>

  <text class="legend" x="920" y="52" text-anchor="end">thin = unclamped</text>
  <text class="legend" x="920" y="66" text-anchor="end">bold = DPWM1 clamped</text>
</svg>
