<svg xmlns="http://www.w3.org/2000/svg" width="1000" height="580" viewBox="0 0 1000 580" role="img" aria-labelledby="title desc">
  <title id="title">Zero-sequence injection comparison</title>
  <desc id="desc">Three-panel comparison of zero-sequence injection methods at modulation index ma = 2/sqrt(3): pure sinusoidal (clipped), third-harmonic injection, and min-max (SVPWM).</desc>
  <style>
    .bg { fill: #fbf8f2; }
    .axis { stroke: #182126; stroke-width: 1.5; fill: none; }
    .bound { stroke: #c14f2c; stroke-width: 1.5; fill: none; stroke-dasharray: 6 4; }
    .wave { stroke: #c14f2c; stroke-width: 2.5; fill: none; }
    .comp { stroke: #4e7a76; stroke-width: 1.5; fill: none; stroke-dasharray: 5 5; }
    .overflow { fill: rgba(193,79,44,0.12); stroke: none; }
    .txt { font-family: Arial, Helvetica, sans-serif; fill: #182126; }
    .head { font-size: 24px; font-weight: 700; }
    .label { font-size: 14px; font-weight: 600; }
    .small { font-size: 13px; fill: #5b6468; }
    .ann-red { font-size: 13px; fill: #c14f2c; font-weight: 600; }
    .ann-teal { font-size: 13px; fill: #4e7a76; font-weight: 600; }
    .xaxis { font-size: 15px; fill: #5b6468; }
  </style>

  <!-- Background -->
  <rect class="bg" x="0" y="0" width="1000" height="580" rx="24" ry="24" />

  <!-- Heading -->
  <text class="txt head" x="500" y="36" text-anchor="middle">Zero-sequence injection comparison (m&#x2090; &#x2248; 1.155)</text>

  <!-- ========== Panel 1: Pure sinusoidal ========== -->
  <!-- Panel label -->
  <text class="txt label" x="30" y="131" text-anchor="start">Pure</text>
  <text class="txt label" x="30" y="146" text-anchor="start">sinusoidal</text>

  <!-- Axes -->
  <line class="axis" x1="120" y1="70" x2="120" y2="200" />
  <line class="axis" x1="120" y1="135" x2="920" y2="135" />

  <!-- Boundary lines at +/-1 (y=79, y=191) -->
  <line class="bound" x1="120" y1="79" x2="920" y2="79" />
  <line class="bound" x1="120" y1="191" x2="920" y2="191" />

  <!-- Overflow shading: top -->
  <polygon class="overflow" points="253.4,79.0 257.4,78.0 265.5,76.2 273.5,74.6 281.6,73.3 289.7,72.2 297.8,71.3 305.9,70.7 313.9,70.4 322.0,70.3 330.1,70.5 338.2,71.0 346.3,71.7 354.3,72.7 362.4,73.9 370.5,75.4 378.6,77.1 386.7,79.0" />

  <!-- Overflow shading: bottom -->
  <polygon class="overflow" points="653.3,191.0 661.4,192.9 669.5,194.6 677.6,196.1 685.7,197.3 693.7,198.3 701.8,199.0 709.9,199.5 718.0,199.7 726.1,199.6 734.1,199.3 742.2,198.7 750.3,197.8 758.4,196.7 766.5,195.4 774.5,193.8 782.6,192.0 786.6,191.0" />

  <!-- Waveform -->
  <polyline class="wave" points="120.0,135.0 128.1,130.9 136.2,126.8 144.2,122.8 152.3,118.8 160.4,114.8 168.5,111.0 176.6,107.2 184.6,103.6 192.7,100.0 200.8,96.7 208.9,93.4 217.0,90.4 225.1,87.5 233.1,84.8 241.2,82.3 249.3,80.1 257.4,78.0 265.5,76.2 273.5,74.6 281.6,73.3 289.7,72.2 297.8,71.3 305.9,70.7 313.9,70.4 322.0,70.3 330.1,70.5 338.2,71.0 346.3,71.7 354.3,72.7 362.4,73.9 370.5,75.4 378.6,77.1 386.7,79.0 394.7,81.2 402.8,83.5 410.9,86.1 419.0,88.9 427.1,91.9 435.2,95.0 443.2,98.3 451.3,101.8 459.4,105.4 467.5,109.1 475.6,112.9 483.6,116.8 491.7,120.8 499.8,124.8 507.9,128.9 516.0,132.9 524.0,137.1 532.1,141.1 540.2,145.2 548.3,149.2 556.4,153.2 564.4,157.1 572.5,160.9 580.6,164.6 588.7,168.2 596.8,171.7 604.8,175.0 612.9,178.1 621.0,181.1 629.1,183.9 637.2,186.5 645.3,188.8 653.3,191.0 661.4,192.9 669.5,194.6 677.6,196.1 685.7,197.3 693.7,198.3 701.8,199.0 709.9,199.5 718.0,199.7 726.1,199.6 734.1,199.3 742.2,198.7 750.3,197.8 758.4,196.7 766.5,195.4 774.5,193.8 782.6,192.0 790.7,189.9 798.8,187.7 806.9,185.2 814.9,182.5 823.0,179.6 831.1,176.6 839.2,173.3 847.3,170.0 855.4,166.4 863.4,162.8 871.5,159.0 879.6,155.2 887.7,151.2 895.8,147.2 903.8,143.2 911.9,139.1 920.0,135.0" />

  <!-- Annotations -->
  <text class="ann-red" x="930" y="74">peak = 1.155</text>
  <text class="ann-red" x="930" y="89">exceeds &#xB1;1</text>

  <!-- +1 / -1 labels -->
  <text class="small" x="108" y="76" text-anchor="end">+1</text>
  <text class="small" x="108" y="195" text-anchor="end">&#x2212;1</text>

  <!-- ========== Panel 2: Third-harmonic injection ========== -->
  <!-- Panel label -->
  <text class="txt label" x="15" y="298" text-anchor="start">Third harmonic</text>
  <text class="txt label" x="15" y="313" text-anchor="start">(1/6)</text>

  <!-- Axes -->
  <line class="axis" x1="120" y1="240" x2="120" y2="370" />
  <line class="axis" x1="120" y1="305" x2="920" y2="305" />

  <!-- Boundary lines at +/-1 (y=249, y=361) -->
  <line class="bound" x1="120" y1="249" x2="920" y2="249" />
  <line class="bound" x1="120" y1="361" x2="920" y2="361" />

  <!-- Third harmonic component (dashed teal) -->
  <polyline class="comp" points="120.0,305.0 128.1,303.0 136.2,301.0 144.2,299.2 152.3,297.6 160.4,296.2 168.5,295.2 176.6,294.5 184.6,294.2 192.7,294.3 200.8,294.8 208.9,295.7 217.0,296.9 225.1,298.3 233.1,300.1 241.2,302.0 249.3,304.0 257.4,306.0 265.5,308.0 273.5,309.9 281.6,311.7 289.7,313.1 297.8,314.3 305.9,315.2 313.9,315.7 322.0,315.8 330.1,315.5 338.2,314.8 346.3,313.8 354.3,312.4 362.4,310.8 370.5,309.0 378.6,307.0 386.7,305.0 394.7,303.0 402.8,301.0 410.9,299.2 419.0,297.6 427.1,296.2 435.2,295.2 443.2,294.5 451.3,294.2 459.4,294.3 467.5,294.8 475.6,295.7 483.6,296.9 491.7,298.3 499.8,300.1 507.9,302.0 516.0,304.0 524.0,306.0 532.1,308.0 540.2,309.9 548.3,311.7 556.4,313.1 564.4,314.3 572.5,315.2 580.6,315.7 588.7,315.8 596.8,315.5 604.8,314.8 612.9,313.8 621.0,312.4 629.1,310.8 637.2,309.0 645.3,307.0 653.3,305.0 661.4,303.0 669.5,301.0 677.6,299.2 685.7,297.6 693.7,296.2 701.8,295.2 709.9,294.5 718.0,294.2 726.1,294.3 734.1,294.8 742.2,295.7 750.3,296.9 758.4,298.3 766.5,300.1 774.5,302.0 782.6,304.0 790.7,306.0 798.8,308.0 806.9,309.9 814.9,311.7 823.0,313.1 831.1,314.3 839.2,315.2 847.3,315.7 855.4,315.8 863.4,315.5 871.5,314.8 879.6,313.8 887.7,312.4 895.8,310.8 903.8,309.0 911.9,307.0 920.0,305.0" />

  <!-- Main injected waveform -->
  <polyline class="wave" points="120.0,305.0 128.1,298.9 136.2,292.8 144.2,286.9 152.3,281.3 160.4,276.0 168.5,271.2 176.6,266.7 184.6,262.8 192.7,259.4 200.8,256.5 208.9,254.1 217.0,252.2 225.1,250.8 233.1,249.9 241.2,249.3 249.3,249.0 257.4,249.0 265.5,249.2 273.5,249.5 281.6,249.9 289.7,250.3 297.8,250.7 305.9,250.9 313.9,251.1 322.0,251.1 330.1,251.0 338.2,250.8 346.3,250.5 354.3,250.1 362.4,249.7 370.5,249.4 378.6,249.1 386.7,249.0 394.7,249.1 402.8,249.5 410.9,250.3 419.0,251.5 427.1,253.1 435.2,255.2 443.2,257.9 451.3,261.0 459.4,264.7 467.5,268.9 475.6,273.6 483.6,278.6 491.7,284.1 499.8,289.8 507.9,295.8 516.0,301.9 524.0,308.1 532.1,314.2 540.2,320.2 548.3,325.9 556.4,331.4 564.4,336.4 572.5,341.1 580.6,345.3 588.7,349.0 596.8,352.1 604.8,354.8 612.9,356.9 621.0,358.5 629.1,359.7 637.2,360.5 645.3,360.9 653.3,361.0 661.4,360.9 669.5,360.6 677.6,360.3 685.7,359.9 693.7,359.5 701.8,359.2 709.9,359.0 718.0,358.9 726.1,358.9 734.1,359.1 742.2,359.3 750.3,359.7 758.4,360.1 766.5,360.5 774.5,360.8 782.6,361.0 790.7,361.0 798.8,360.7 806.9,360.1 814.9,359.2 823.0,357.8 831.1,355.9 839.2,353.5 847.3,350.6 855.4,347.2 863.4,343.3 871.5,338.8 879.6,334.0 887.7,328.7 895.8,323.1 903.8,317.2 911.9,311.1 920.0,305.0" />

  <!-- Annotations -->
  <text class="ann-teal" x="930" y="253">peak = 1.00</text>

  <!-- +1 / -1 labels -->
  <text class="small" x="108" y="253" text-anchor="end">+1</text>
  <text class="small" x="108" y="365" text-anchor="end">&#x2212;1</text>

  <!-- Component legend -->
  <line class="comp" x1="930" y1="270" x2="960" y2="270" />
  <text class="small" x="964" y="274">v&#x2083;</text>

  <!-- ========== Panel 3: Min-max (SVPWM) ========== -->
  <!-- Panel label -->
  <text class="txt label" x="24" y="470" text-anchor="start">Min-max</text>
  <text class="txt label" x="24" y="485" text-anchor="start">(SVPWM)</text>

  <!-- Axes -->
  <line class="axis" x1="120" y1="410" x2="120" y2="540" />
  <line class="axis" x1="120" y1="475" x2="920" y2="475" />

  <!-- Boundary lines at +/-1 (y=419, y=531) -->
  <line class="bound" x1="120" y1="419" x2="920" y2="419" />
  <line class="bound" x1="120" y1="531" x2="920" y2="531" />

  <!-- Main waveform -->
  <polyline class="wave" points="120.0,475.0 128.1,468.8 136.2,462.7 144.2,456.6 152.3,450.6 160.4,444.7 168.5,439.0 176.6,433.3 184.6,427.8 192.7,425.2 200.8,423.7 208.9,422.4 217.0,421.3 225.1,420.4 233.1,419.7 241.2,419.3 249.3,419.0 257.4,419.0 265.5,419.3 273.5,419.7 281.6,420.4 289.7,421.3 297.8,422.4 305.9,423.7 313.9,425.2 322.0,426.1 330.1,424.4 338.2,423.0 346.3,421.8 354.3,420.8 362.4,420.0 370.5,419.5 378.6,419.1 386.7,419.0 394.7,419.1 402.8,419.5 410.9,420.0 419.0,420.8 427.1,421.8 435.2,423.0 443.2,424.4 451.3,426.1 459.4,430.6 467.5,436.1 475.6,441.8 483.6,447.7 491.7,453.6 499.8,459.7 507.9,465.8 516.0,471.9 524.0,478.1 532.1,484.2 540.2,490.3 548.3,496.4 556.4,502.3 564.4,508.2 572.5,513.9 580.6,519.4 588.7,523.9 596.8,525.6 604.8,527.0 612.9,528.2 621.0,529.2 629.1,530.0 637.2,530.5 645.3,530.9 653.3,531.0 661.4,530.9 669.5,530.5 677.6,530.0 685.7,529.2 693.7,528.2 701.8,527.0 709.9,525.6 718.0,523.9 726.1,524.8 734.1,526.3 742.2,527.6 750.3,528.7 758.4,529.6 766.5,530.3 774.5,530.7 782.6,531.0 790.7,531.0 798.8,530.7 806.9,530.3 814.9,529.6 823.0,528.7 831.1,527.6 839.2,526.3 847.3,524.8 855.4,522.2 863.4,516.7 871.5,511.0 879.6,505.3 887.7,499.4 895.8,493.4 903.8,487.3 911.9,481.2 920.0,475.0" />

  <!-- Annotations -->
  <text class="ann-teal" x="930" y="423">peak = 1.00</text>

  <!-- +1 / -1 labels -->
  <text class="small" x="108" y="423" text-anchor="end">+1</text>
  <text class="small" x="108" y="535" text-anchor="end">&#x2212;1</text>

  <!-- ========== X-axis labels ========== -->
  <text class="xaxis" x="120" y="562" text-anchor="middle">0</text>
  <text class="xaxis" x="520" y="562" text-anchor="middle">&#x3C0;</text>
  <text class="xaxis" x="920" y="562" text-anchor="middle">2&#x3C0;</text>
</svg>
